<svg width="32" height="32" viewBox="0 0 32 32" fill="none" xmlns="http://www.w3.org/2000/svg">
<path d="M19.9987 22.6667H26.6654L24.792 20.7933C24.5405 20.5417 24.3409 20.243 24.2048 19.9142C24.0687 19.5855 23.9986 19.2331 23.9987 18.8773V14.6667C23.9989 13.0119 23.4861 11.3978 22.531 10.0465C21.5759 8.69525 20.2253 7.67329 18.6654 7.12133V6.66667C18.6654 5.95942 18.3844 5.28115 17.8843 4.78105C17.3842 4.28095 16.7059 4 15.9987 4C15.2915 4 14.6132 4.28095 14.1131 4.78105C13.613 5.28115 13.332 5.95942 13.332 6.66667V7.12133C10.2254 8.22 7.9987 11.184 7.9987 14.6667V18.8787C7.9987 19.596 7.71336 20.2853 7.20536 20.7933L5.33203 22.6667H11.9987M19.9987 22.6667V24C19.9987 25.0609 19.5773 26.0783 18.8271 26.8284C18.077 27.5786 17.0596 28 15.9987 28C14.9378 28 13.9204 27.5786 13.1703 26.8284C12.4201 26.0783 11.9987 25.0609 11.9987 24V22.6667M19.9987 22.6667H11.9987" stroke="#6B7276" stroke-width="2" stroke-linecap="round" stroke-linejoin="round"/>
</svg>
