<svg width="54" height="42" viewBox="0 0 54 42" fill="none" xmlns="http://www.w3.org/2000/svg">
<path d="M8.25 0.375C4.10787 0.375 0.75 3.73286 0.75 7.875V9.75H53.25V7.875C53.25 3.73286 49.8921 0.375 45.75 0.375H8.25Z" fill="#FF8C42"/>
<path fill-rule="evenodd" clip-rule="evenodd" d="M53.25 15.375H0.75V34.125C0.75 38.2671 4.10787 41.625 8.25 41.625H45.75C49.8921 41.625 53.25 38.2671 53.25 34.125V15.375ZM8.25 24.75C8.25 23.7145 9.08947 22.875 10.125 22.875H25.125C26.1605 22.875 27 23.7145 27 24.75C27 25.7855 26.1605 26.625 25.125 26.625H10.125C9.08947 26.625 8.25 25.7855 8.25 24.75ZM10.125 30.375C9.08947 30.375 8.25 31.2145 8.25 32.25C8.25 33.2855 9.08947 34.125 10.125 34.125H17.625C18.6605 34.125 19.5 33.2855 19.5 32.25C19.5 31.2145 18.6605 30.375 17.625 30.375H10.125Z" fill="#FF8C42"/>
</svg>
