<svg width="25" height="24" viewBox="0 0 25 24" fill="none" xmlns="http://www.w3.org/2000/svg">
<path d="M13.25 12.75C13.25 13.1642 12.9142 13.5 12.5 13.5C12.0858 13.5 11.75 13.1642 11.75 12.75C11.75 12.3358 12.0858 12 12.5 12C12.9142 12 13.25 12.3358 13.25 12.75Z" fill="#6B7276"/>
<path d="M8 15.75C8.41421 15.75 8.75 15.4142 8.75 15C8.75 14.5858 8.41421 14.25 8 14.25C7.58579 14.25 7.25 14.5858 7.25 15C7.25 15.4142 7.58579 15.75 8 15.75Z" fill="#6B7276"/>
<path d="M8.75 17.25C8.75 17.6642 8.41421 18 8 18C7.58579 18 7.25 17.6642 7.25 17.25C7.25 16.8358 7.58579 16.5 8 16.5C8.41421 16.5 8.75 16.8358 8.75 17.25Z" fill="#6B7276"/>
<path d="M10.25 15.75C10.6642 15.75 11 15.4142 11 15C11 14.5858 10.6642 14.25 10.25 14.25C9.83579 14.25 9.5 14.5858 9.5 15C9.5 15.4142 9.83579 15.75 10.25 15.75Z" fill="#6B7276"/>
<path d="M11 17.25C11 17.6642 10.6642 18 10.25 18C9.83579 18 9.5 17.6642 9.5 17.25C9.5 16.8358 9.83579 16.5 10.25 16.5C10.6642 16.5 11 16.8358 11 17.25Z" fill="#6B7276"/>
<path d="M12.5 15.75C12.9142 15.75 13.25 15.4142 13.25 15C13.25 14.5858 12.9142 14.25 12.5 14.25C12.0858 14.25 11.75 14.5858 11.75 15C11.75 15.4142 12.0858 15.75 12.5 15.75Z" fill="#6B7276"/>
<path d="M13.25 17.25C13.25 17.6642 12.9142 18 12.5 18C12.0858 18 11.75 17.6642 11.75 17.25C11.75 16.8358 12.0858 16.5 12.5 16.5C12.9142 16.5 13.25 16.8358 13.25 17.25Z" fill="#6B7276"/>
<path d="M14.75 15.75C15.1642 15.75 15.5 15.4142 15.5 15C15.5 14.5858 15.1642 14.25 14.75 14.25C14.3358 14.25 14 14.5858 14 15C14 15.4142 14.3358 15.75 14.75 15.75Z" fill="#6B7276"/>
<path d="M15.5 17.25C15.5 17.6642 15.1642 18 14.75 18C14.3358 18 14 17.6642 14 17.25C14 16.8358 14.3358 16.5 14.75 16.5C15.1642 16.5 15.5 16.8358 15.5 17.25Z" fill="#6B7276"/>
<path d="M17 15.75C17.4142 15.75 17.75 15.4142 17.75 15C17.75 14.5858 17.4142 14.25 17 14.25C16.5858 14.25 16.25 14.5858 16.25 15C16.25 15.4142 16.5858 15.75 17 15.75Z" fill="#6B7276"/>
<path d="M15.5 12.75C15.5 13.1642 15.1642 13.5 14.75 13.5C14.3358 13.5 14 13.1642 14 12.75C14 12.3358 14.3358 12 14.75 12C15.1642 12 15.5 12.3358 15.5 12.75Z" fill="#6B7276"/>
<path d="M17 13.5C17.4142 13.5 17.75 13.1642 17.75 12.75C17.75 12.3358 17.4142 12 17 12C16.5858 12 16.25 12.3358 16.25 12.75C16.25 13.1642 16.5858 13.5 17 13.5Z" fill="#6B7276"/>
<path fill-rule="evenodd" clip-rule="evenodd" d="M7.25 2.25C7.66421 2.25 8 2.58579 8 3V4.5H17V3C17 2.58579 17.3358 2.25 17.75 2.25C18.1642 2.25 18.5 2.58579 18.5 3V4.5H19.25C20.9069 4.5 22.25 5.84315 22.25 7.5V18.75C22.25 20.4069 20.9069 21.75 19.25 21.75H5.75C4.09315 21.75 2.75 20.4069 2.75 18.75V7.5C2.75 5.84315 4.09315 4.5 5.75 4.5H6.5V3C6.5 2.58579 6.83579 2.25 7.25 2.25ZM20.75 11.25C20.75 10.4216 20.0784 9.75 19.25 9.75H5.75C4.92157 9.75 4.25 10.4216 4.25 11.25V18.75C4.25 19.5784 4.92157 20.25 5.75 20.25H19.25C20.0784 20.25 20.75 19.5784 20.75 18.75V11.25Z" fill="#6B7276"/>
</svg>
