<svg width="60" height="60" viewBox="0 0 60 60" fill="none" xmlns="http://www.w3.org/2000/svg">
<g clip-path="url(#clip0_179_3647)">
<path d="M15.6748 2.97131V32.6477H60V2.97131H15.6748ZM58.0878 30.7394H17.587V4.8816H58.0878V30.7394Z" fill="black"/>
<path d="M56.8694 26.6545H49.1836V29.4102H56.8694V26.6545Z" fill="black"/>
<path d="M5.96187 19.7208C7.78427 19.7208 9.26162 18.2434 9.26162 16.421C9.26162 14.5986 7.78427 13.1213 5.96187 13.1213C4.13946 13.1213 2.66211 14.5986 2.66211 16.421C2.66211 18.2434 4.13946 19.7208 5.96187 19.7208Z" fill="black"/>
<path d="M4.10388 36.3498L4.11359 36.5655H5.57108V35.2032V35.0575V29.1809H6.40282V35.0575V35.2032V36.5655H7.86031L7.87586 36.3498L9.18954 36.5655H10.3147V35.3451L8.99132 35.0575H8.76396V29.1809V28.627V27.8769H8.97578L9.27894 21.9304L15.175 19.9773L14.6658 18.4363L9.28282 20.2164H7.16655L5.90339 21.6758L4.68687 20.2164L2.01286 20.6886L1.8438 26.6468H2.97675L3.03699 27.8769H3.21189V28.627V29.1809V35.0575H2.98258L1.65918 35.3451V36.5655H2.78825L4.10388 36.3498Z" fill="black"/>
<path d="M45.569 43.8277C46.6745 43.8277 47.5706 42.9315 47.5706 41.8261C47.5706 40.7206 46.6745 39.8245 45.569 39.8245C44.4635 39.8245 43.5674 40.7206 43.5674 41.8261C43.5674 42.9315 44.4635 43.8277 45.569 43.8277Z" fill="black"/>
<path d="M54.7526 43.8277C55.8581 43.8277 56.7542 42.9315 56.7542 41.8261C56.7542 40.7206 55.8581 39.8245 54.7526 39.8245C53.6471 39.8245 52.751 40.7206 52.751 41.8261C52.751 42.9315 53.6471 43.8277 54.7526 43.8277Z" fill="black"/>
<path d="M35.3991 43.8257C36.5035 43.8257 37.3988 42.9304 37.3988 41.826C37.3988 40.7216 36.5035 39.8264 35.3991 39.8264C34.2947 39.8264 33.3994 40.7216 33.3994 41.826C33.3994 42.9304 34.2947 43.8257 35.3991 43.8257Z" fill="black"/>
<path d="M24.5495 43.8257C25.6539 43.8257 26.5492 42.9304 26.5492 41.826C26.5492 40.7216 25.6539 39.8264 24.5495 39.8264C23.4451 39.8264 22.5498 40.7216 22.5498 41.826C22.5498 42.9304 23.4451 43.8257 24.5495 43.8257Z" fill="black"/>
<path d="M14.0798 43.6353C15.1841 43.6353 16.0794 42.74 16.0794 41.6356C16.0794 40.5312 15.1841 39.6359 14.0798 39.6359C12.9754 39.6359 12.0801 40.5312 12.0801 41.6356C12.0801 42.74 12.9754 43.6353 14.0798 43.6353Z" fill="black"/>
<path d="M3.6569 43.6353C4.76129 43.6353 5.65658 42.74 5.65658 41.6356C5.65658 40.5312 4.76129 39.6359 3.6569 39.6359C2.55251 39.6359 1.65723 40.5312 1.65723 41.6356C1.65723 42.74 2.55251 43.6353 3.6569 43.6353Z" fill="black"/>
<path d="M45.5646 50.9616C47.1552 50.9616 48.4446 49.6722 48.4446 48.0816C48.4446 46.491 47.1552 45.2016 45.5646 45.2016C43.974 45.2016 42.6846 46.491 42.6846 48.0816C42.6846 49.6722 43.974 50.9616 45.5646 50.9616Z" fill="black"/>
<path d="M46.6784 51.395L45.6193 52.6717L44.5175 51.395L41.9795 51.8788V56.9451H49.1581L49.0454 51.9197L46.6784 51.395Z" fill="black"/>
<path d="M35.1271 50.9616C36.7177 50.9616 38.0071 49.6722 38.0071 48.0816C38.0071 46.491 36.7177 45.2016 35.1271 45.2016C33.5365 45.2016 32.2471 46.491 32.2471 48.0816C32.2471 49.6722 33.5365 50.9616 35.1271 50.9616Z" fill="black"/>
<path d="M36.239 51.395L35.1818 52.6717L34.0819 51.395L31.5381 51.9197V56.9451H38.7225L38.5787 51.9197L36.239 51.395Z" fill="black"/>
<path d="M40.2032 46.1733C41.3667 46.1733 42.3098 45.2301 42.3098 44.0667C42.3098 42.9033 41.3667 41.9601 40.2032 41.9601C39.0398 41.9601 38.0967 42.9033 38.0967 44.0667C38.0967 45.2301 39.0398 46.1733 40.2032 46.1733Z" fill="black"/>
<path d="M42.8273 50.5496L42.8254 50.4213C42.4542 49.712 42.1918 48.9425 42.1918 48.0835C42.1918 47.5199 42.3415 46.9933 42.5164 46.49H42.3104H41.7915H41.0161L40.2407 47.4208L39.4401 46.49H38.6142H38.1536C38.3674 46.9797 38.4898 47.518 38.4898 48.0835C38.4898 49.0105 38.1633 49.8578 37.6328 50.5515H42.8273V50.5496Z" fill="black"/>
<path d="M24.548 50.9577C26.1364 50.9577 27.4241 49.6701 27.4241 48.0816C27.4241 46.4932 26.1364 45.2055 24.548 45.2055C22.9596 45.2055 21.6719 46.4932 21.6719 48.0816C21.6719 49.6701 22.9596 50.9577 24.548 50.9577Z" fill="black"/>
<path d="M25.6599 51.395L24.6008 52.6717L23.5028 51.395L20.957 51.9197V56.9451H28.1415L27.9957 51.9197L25.6599 51.395Z" fill="black"/>
<path d="M29.6202 46.1733C30.7836 46.1733 31.7268 45.2301 31.7268 44.0667C31.7268 42.9033 30.7836 41.9601 29.6202 41.9601C28.4568 41.9601 27.5137 42.9033 27.5137 44.0667C27.5137 45.2301 28.4568 46.1733 29.6202 46.1733Z" fill="black"/>
<path d="M32.2472 50.5496V50.4213C31.8721 49.712 31.6098 48.9425 31.6098 48.0835C31.6098 47.5199 31.7614 46.9933 31.9363 46.49H31.7303H31.2153H30.4321L29.6567 47.4208L28.8542 46.49H28.0302H27.5696C27.7814 46.9797 27.9039 47.518 27.9039 48.0835C27.9039 49.0105 27.5813 49.8578 27.0449 50.5515H32.2472V50.5496Z" fill="black"/>
<path d="M56.1271 50.8295C57.7166 50.8295 59.0051 49.5409 59.0051 47.9514C59.0051 46.3619 57.7166 45.0734 56.1271 45.0734C54.5376 45.0734 53.249 46.3619 53.249 47.9514C53.249 49.5409 54.5376 50.8295 56.1271 50.8295Z" fill="black"/>
<path d="M57.239 51.2628L56.1779 52.5357L55.0819 51.2628L52.5381 51.84V56.8129H59.7225L59.5768 51.7992L57.239 51.2628Z" fill="black"/>
<path d="M50.6193 46.0392C51.7827 46.0392 52.7258 45.096 52.7258 43.9326C52.7258 42.7692 51.7827 41.826 50.6193 41.826C49.4558 41.826 48.5127 42.7692 48.5127 43.9326C48.5127 45.096 49.4558 46.0392 50.6193 46.0392Z" fill="black"/>
<path d="M53.2472 50.4194L53.2433 50.2911C52.8702 49.5818 52.6059 48.8103 52.6059 47.9533C52.6059 47.3878 52.7575 46.8631 52.9285 46.3578H52.7264H52.2095H51.4322L50.6568 47.2887L49.8561 46.3578H49.0283H48.5716C48.7815 46.8495 48.9058 47.3878 48.9058 47.9533C48.9058 48.8803 48.5833 49.7295 48.0508 50.4233L53.2472 50.4194Z" fill="black"/>
<path d="M14.2423 51.0413C15.8318 51.0413 17.1204 49.7527 17.1204 48.1632C17.1204 46.5737 15.8318 45.2852 14.2423 45.2852C12.6528 45.2852 11.3643 46.5737 11.3643 48.1632C11.3643 49.7527 12.6528 51.0413 14.2423 51.0413Z" fill="black"/>
<path d="M15.3561 51.4746L14.2912 52.7514L13.1952 51.4746L10.6514 51.9196V57.0286H17.8358L17.6881 51.9196L15.3561 51.4746Z" fill="black"/>
<path d="M19.3126 46.2529C20.476 46.2529 21.4192 45.3098 21.4192 44.1464C21.4192 42.9829 20.476 42.0398 19.3126 42.0398C18.1492 42.0398 17.2061 42.9829 17.2061 44.1464C17.2061 45.3098 18.1492 46.2529 19.3126 46.2529Z" fill="black"/>
<path d="M21.9405 50.6293L21.9386 50.501C21.5655 49.7917 21.3031 49.0202 21.3031 48.1671C21.3031 47.5997 21.4567 47.0769 21.6277 46.5697H21.4236H20.9067H20.1294L19.354 47.5025L18.5495 46.5697H17.7235H17.263C17.4729 47.0633 17.5972 47.5997 17.5972 48.1652C17.5972 49.0902 17.2727 49.9394 16.7383 50.6312H21.9405V50.6293Z" fill="black"/>
<path d="M3.66126 51.0413C5.25077 51.0413 6.53932 49.7527 6.53932 48.1632C6.53932 46.5737 5.25077 45.2852 3.66126 45.2852C2.07175 45.2852 0.783203 46.5737 0.783203 48.1632C0.783203 49.7527 2.07175 51.0413 3.66126 51.0413Z" fill="black"/>
<path d="M4.77474 51.4746L3.71174 52.7514L2.61182 51.4746L0 51.9196L0.0699595 57.0286H7.25441L7.10478 51.9196L4.77474 51.4746Z" fill="black"/>
<path d="M8.73546 46.2529C9.89888 46.2529 10.842 45.3098 10.842 44.1464C10.842 42.9829 9.89888 42.0398 8.73546 42.0398C7.57204 42.0398 6.62891 42.9829 6.62891 44.1464C6.62891 45.3098 7.57204 46.2529 8.73546 46.2529Z" fill="black"/>
<path d="M11.3624 50.6293L11.3585 50.501C10.9854 49.7917 10.7231 49.0202 10.7231 48.1671C10.7231 47.5997 10.8746 47.0769 11.0495 46.5697H10.8397H10.3247H9.54734L8.77196 47.5025L7.96742 46.5677H7.14346H6.68289C6.89277 47.0614 7.01714 47.5997 7.01714 48.1652C7.01714 49.0921 6.68872 49.9394 6.15625 50.6332H11.3624V50.6293Z" fill="black"/>
<path d="M29.3621 19.5575H25.4035V18.6345H28.8976V16.8719H25.4035V15.9488H29.2494V14.0521H23.1221V21.4581H29.3621V19.5575Z" fill="black"/>
<path d="M35.5605 19.2874H30.3252V20.8732H35.5605V19.2874Z" fill="black"/>
<path d="M35.5605 16.7883H30.3252V18.3741H35.5605V16.7883Z" fill="black"/>
<path d="M38.6547 18.5431C38.6547 18.2594 38.7013 18.0262 38.8023 17.8474C38.9053 17.6686 39.0841 17.5792 39.3484 17.5792C39.4981 17.5792 39.6185 17.6045 39.7099 17.657C39.8012 17.7075 39.8731 17.7794 39.9159 17.8688C39.9625 17.9582 39.9936 18.0612 40.0053 18.1797C40.0169 18.2983 40.0208 18.4188 40.0208 18.5431V21.4581H42.0749V18.5431C42.0749 18.2594 42.1215 18.0262 42.2226 17.8474C42.3256 17.6686 42.5063 17.5792 42.7648 17.5792C42.9202 17.5792 43.0427 17.6045 43.1301 17.657C43.2234 17.7075 43.2895 17.7794 43.3381 17.8688C43.3847 17.9582 43.4158 18.0612 43.4255 18.1797C43.4372 18.2983 43.4411 18.4188 43.4411 18.5431V21.4581H45.4951V17.7658C45.4951 17.552 45.464 17.3344 45.4038 17.1187C45.3436 16.8991 45.2367 16.7028 45.0948 16.5279C44.9471 16.3511 44.7547 16.2092 44.5235 16.1023C44.2864 15.9935 43.9968 15.941 43.6529 15.941C43.3186 15.941 43.0407 15.9818 42.8114 16.0635C42.584 16.147 42.3975 16.2384 42.2634 16.3394C42.1235 16.4405 42.0205 16.5357 41.9525 16.6231C41.8844 16.7125 41.8398 16.765 41.8184 16.7786C41.6979 16.5085 41.4958 16.3025 41.2159 16.1567C40.9361 16.0129 40.6563 15.9391 40.3648 15.9391C39.9955 15.9391 39.6594 16.0032 39.3581 16.1315C39.0628 16.2617 38.8082 16.4813 38.6022 16.7903H38.5789V16.0751H36.5967V21.4562H38.6547V18.5431Z" fill="black"/>
<path d="M47.2242 20.8576C47.4943 21.0967 47.8169 21.2774 48.1842 21.4018C48.5515 21.5261 48.9537 21.5903 49.3813 21.5903C49.6825 21.5903 49.9798 21.5553 50.2655 21.4853C50.555 21.4173 50.8174 21.3143 51.0642 21.1744C51.311 21.0364 51.5267 20.8596 51.7133 20.6458C51.8998 20.432 52.0456 20.1794 52.1505 19.8899H50.2422C50.1586 20.0201 50.0362 20.1172 49.8749 20.1794C49.7116 20.2416 49.5465 20.2727 49.3793 20.2727C49.0528 20.2727 48.8002 20.1775 48.6253 19.9831C48.4543 19.7907 48.3513 19.5362 48.326 19.2252H52.2652C52.2652 18.7005 52.2088 18.2361 52.0864 17.8261C51.9678 17.4199 51.7871 17.0759 51.5403 16.7941C51.2896 16.5143 50.9709 16.3025 50.5842 16.1567C50.1994 16.0129 49.7369 15.9391 49.2064 15.9391C48.7769 15.9391 48.3902 16.0129 48.0404 16.1626C47.6906 16.3103 47.3913 16.5143 47.1426 16.7728C46.8919 17.0312 46.7014 17.3324 46.5673 17.6745C46.4313 18.0165 46.3652 18.3838 46.3652 18.7783C46.3652 19.2272 46.441 19.6275 46.5926 19.9754C46.7442 20.3232 46.9541 20.6205 47.2242 20.8576ZM48.6642 17.4899C48.8371 17.3324 49.0801 17.2567 49.391 17.2567C49.6533 17.2567 49.869 17.3441 50.0401 17.5209C50.2091 17.6978 50.2927 17.9096 50.2927 18.1584H48.3338C48.3805 17.8688 48.4932 17.6434 48.6642 17.4899Z" fill="black"/>
<path d="M55.503 16.1956H53.8512V16.1898C54.0242 16.0849 54.2049 15.9877 54.3934 15.8866C54.5819 15.7875 54.7529 15.6787 54.9084 15.5602C55.0658 15.4397 55.194 15.2998 55.297 15.1385C55.3981 14.9772 55.4486 14.7809 55.4486 14.5477C55.4486 14.3553 55.4098 14.1862 55.3378 14.0424C55.2698 13.8986 55.1629 13.7781 55.0347 13.6849C54.9064 13.5896 54.751 13.5197 54.5664 13.473C54.3817 13.4264 54.1816 13.4031 53.96 13.4031C53.7132 13.4031 53.4936 13.4381 53.2974 13.508C53.0991 13.578 52.934 13.679 52.7979 13.8151C52.6619 13.9491 52.5608 14.1143 52.4948 14.3087C52.4268 14.5049 52.4015 14.7265 52.419 14.9772H53.3984C53.3945 14.7537 53.4315 14.573 53.515 14.4369C53.5947 14.2989 53.7404 14.229 53.9542 14.229C54.0747 14.229 54.1777 14.262 54.2632 14.3262C54.3487 14.3903 54.3934 14.5049 54.3934 14.6721C54.3934 14.7381 54.3701 14.7984 54.3409 14.8509C54.3059 14.9014 54.2671 14.948 54.2204 14.9908C54.1699 15.0335 54.1097 15.0724 54.0533 15.1074C53.9989 15.1423 53.9445 15.1734 53.9017 15.2006C53.7851 15.2706 53.6705 15.3425 53.5442 15.4125C53.4237 15.4844 53.3051 15.5582 53.1905 15.636C53.0758 15.7156 52.9709 15.7992 52.8718 15.8886C52.7727 15.9838 52.6852 16.081 52.6055 16.1859C52.5142 16.3083 52.4462 16.4424 52.4015 16.594C52.3568 16.7436 52.3374 16.9069 52.349 17.0837H55.503V16.1956Z" fill="black"/>
</g>
<defs>
<clipPath id="clip0_179_3647">
<rect width="60" height="60" fill="white"/>
</clipPath>
</defs>
</svg>
