<svg width="60" height="60" viewBox="0 0 60 60" fill="none" xmlns="http://www.w3.org/2000/svg">
<g clip-path="url(#clip0_179_3622)">
<path d="M34.3125 14.2072C37.316 14.2072 39.7464 11.7669 39.7464 8.77326C39.7464 5.76973 37.3061 3.3393 34.3125 3.3393C20.8563 3.32952 9.88965 14.2862 9.88965 27.7623C9.88965 30.7658 12.33 33.1963 15.3236 33.1963C18.3271 33.1963 20.7576 30.7559 20.7576 27.7623C20.7574 20.2832 26.8433 14.2072 34.3125 14.2072Z" fill="#56ACE0"/>
<path d="M34.3129 0C19.0092 0 6.55078 12.4584 6.55078 27.7623C6.55078 32.5935 10.4829 36.5355 15.324 36.5355C20.1552 36.5355 24.0973 32.6034 24.0973 27.7623C24.0973 22.1309 28.6815 17.5367 34.3229 17.5367C39.164 17.5367 43.0961 13.6046 43.0961 8.76347C43.0862 3.93211 39.1541 0 34.3129 0ZM15.324 33.1961C12.3205 33.1961 9.89007 30.7557 9.89007 27.7621C9.89007 14.2861 20.8468 3.32936 34.3229 3.32936C37.3264 3.32936 39.7568 5.76972 39.7568 8.76332C39.7568 11.7668 37.3165 14.1973 34.3229 14.1973C26.8439 14.1973 20.7678 20.2832 20.7678 27.7524C20.7578 30.7657 18.3274 33.1961 15.324 33.1961Z" fill="#194F82"/>
<path d="M27.4066 10.4035C27.7029 10.0775 28.2068 9.91931 28.6513 10.028C29.5405 10.2652 30.4593 9.73164 30.6866 8.83255C30.9237 7.94339 30.3902 7.02459 29.4911 6.79734C27.8511 6.36269 26.053 6.906 24.9168 8.18058C24.3043 8.86235 24.3636 9.91946 25.0452 10.532C25.7369 11.1543 26.8237 11.0654 27.4066 10.4035Z" fill="#194F82"/>
<path d="M24.4826 12.5374C23.8997 11.8162 22.8623 11.6976 22.1412 12.2805C21.4297 12.8437 20.4715 13.1302 19.5625 13.0511C18.6437 12.9523 17.8335 13.6439 17.7446 14.5527C17.6656 15.4715 18.3374 16.2817 19.2463 16.3706C21.1828 16.499 22.8228 15.9854 24.206 14.8787C24.9371 14.296 25.0556 13.2588 24.4826 12.5374Z" fill="#194F82"/>
<path d="M35.3206 11.6186L36.1505 11.0258C36.8914 10.4923 37.0693 9.45486 36.5357 8.70401C36.0022 7.94323 34.9648 7.78521 34.214 8.31873L33.3841 8.91155C32.6432 9.44508 32.4653 10.4825 32.9988 11.2333C33.73 12.2707 34.9451 11.8952 35.3206 11.6186Z" fill="#194F82"/>
<path d="M16.3816 25.6183C15.4628 25.6183 14.7119 26.3592 14.7119 27.2879V29.0861C14.7119 30.0049 15.4528 30.7557 16.3816 30.7557C17.3103 30.7557 18.0512 30.0148 18.0512 29.0861V27.2879C18.0413 26.3593 17.3004 25.6183 16.3816 25.6183Z" fill="#194F82"/>
<path d="M16.7072 21.7059C17.4877 21.2217 17.7248 20.1943 17.2407 19.4138C16.7565 18.6333 15.7291 18.3961 14.9486 18.8802L13.427 19.8287C12.6465 20.3128 12.4093 21.3403 12.8935 22.1208C13.3776 22.9013 14.4051 23.1385 15.1856 22.6543L16.7072 21.7059Z" fill="#194F82"/>
<path d="M44.6867 26.794C41.6833 26.794 39.2527 29.2343 39.2527 32.2279C39.2527 39.7069 33.1668 45.783 25.6976 45.783C22.6941 45.783 20.2637 48.2234 20.2637 51.217C20.2637 54.2205 22.704 56.6509 25.6976 56.6509C39.1737 56.6509 50.1304 45.6942 50.1304 32.2182C50.1205 29.2244 47.6803 26.794 44.6867 26.794Z" fill="#FFC10D"/>
<path d="M44.6861 23.4547C39.8549 23.4547 35.9129 27.3868 35.9129 32.2279C35.9129 37.8593 31.3287 42.4535 25.6873 42.4535C20.8462 42.4535 16.9141 46.3856 16.9141 51.2268C16.9141 56.058 20.8462 60 25.6873 60C40.9911 60 53.4496 47.5416 53.4496 32.2377C53.4594 27.3967 49.5173 23.4547 44.6861 23.4547ZM25.6971 56.6606C22.6936 56.6606 20.2631 54.2202 20.2631 51.2266C20.2631 48.2231 22.7035 45.7926 25.6971 45.7926C33.176 45.7926 39.2522 39.7067 39.2522 32.2376C39.2522 29.234 41.6925 26.8036 44.6861 26.8036C47.6897 26.8036 50.1201 29.244 50.1201 32.2376C50.1199 45.704 39.1535 56.6606 25.6971 56.6606Z" fill="#194F82"/>
<path d="M32.6029 49.5868C32.3066 49.9127 31.8027 50.0709 31.3581 49.9623C30.469 49.7251 29.5502 50.2586 29.3229 51.1577C29.0857 52.0468 29.6193 52.9656 30.5183 53.1929C32.1583 53.6275 33.9565 53.0842 35.0926 51.8096C35.7052 51.1279 35.6459 50.0708 34.9643 49.4582C34.2727 48.8358 33.1858 48.9247 32.6029 49.5868Z" fill="#194F82"/>
<path d="M40.7543 43.6193C38.8178 43.4909 37.1778 44.0046 35.7946 45.1112C35.0734 45.6941 34.9548 46.7414 35.5377 47.4527C36.1206 48.1739 37.158 48.2925 37.8791 47.7096C38.5906 47.1464 39.5488 46.8598 40.4578 46.939C41.3766 47.0377 42.1868 46.3462 42.2757 45.4373C42.335 44.5184 41.6632 43.7082 40.7543 43.6193Z" fill="#194F82"/>
<path d="M27.0016 48.7568C26.399 47.9763 25.5986 47.6897 24.6798 48.3715L23.8499 48.9643C23.109 49.4978 22.9311 50.5352 23.4647 51.2861C23.9982 52.0369 25.0356 52.2049 25.7864 51.6713L26.6163 51.0785C27.3671 50.5549 27.5449 49.5175 27.0016 48.7568Z" fill="#194F82"/>
<path d="M45.2983 32.7119V30.9138C45.2983 29.995 44.5574 29.2441 43.6286 29.2441C42.7098 29.2441 41.959 29.985 41.959 30.9138V32.7119C41.959 33.6307 42.6999 34.3816 43.6286 34.3816C44.5572 34.3817 45.2983 33.6309 45.2983 32.7119Z" fill="#194F82"/>
<path d="M44.8245 37.3258L43.303 38.2743C42.5225 38.7584 42.2853 39.7859 42.7695 40.5664C43.2536 41.3469 44.2811 41.5841 45.0616 41.0999L46.5831 40.1515C47.3636 39.6673 47.6008 38.6398 47.1167 37.8593C46.6424 37.0789 45.615 36.8418 44.8245 37.3258Z" fill="#194F82"/>
</g>
<defs>
<clipPath id="clip0_179_3622">
<rect width="60" height="60" fill="white"/>
</clipPath>
</defs>
</svg>
