<svg width="60" height="60" viewBox="0 0 60 60" fill="none" xmlns="http://www.w3.org/2000/svg">
<g clip-path="url(#clip0_179_3583)">
<path d="M35.625 37.7963H3.16171V10.6877H29.2318L31.6196 7.81897H1.72734C0.935155 7.81897 0.292969 8.46116 0.292969 9.25334V39.2307C0.292969 40.0229 0.935155 40.665 1.72734 40.665H35.626L35.625 37.7963Z" fill="black"/>
<path d="M58.4025 9.22617H51.7678C51.0476 9.22617 50.4639 9.80999 50.4639 10.5301C50.4639 11.2502 51.0477 11.8341 51.7678 11.8341H58.4025C59.1227 11.8341 59.7064 11.2502 59.7064 10.5301C59.7064 9.80999 59.1226 9.22617 58.4025 9.22617Z" fill="black"/>
<path d="M57.3814 0.381915C56.8722 -0.127264 56.0465 -0.127264 55.5372 0.381915L50.8458 5.07339C50.3366 5.58257 50.3366 6.40827 50.8458 6.91757C51.3549 7.42663 52.1807 7.42674 52.6899 6.91757L57.3814 2.22609C57.8906 1.71691 57.8906 0.89121 57.3814 0.381915Z" fill="black"/>
<path d="M54.6013 20.247C54.5866 17.3824 52.245 15.0526 49.3807 15.0526C47.4696 15.0526 41.0679 15.0526 39.1848 15.0526L34.3541 14.4877L36.9544 11.3637C37.7342 10.4269 37.6063 9.03608 36.6701 8.2569C35.7342 7.47772 34.3432 7.60417 33.5633 8.5412L28.3582 14.7949C27.8403 15.417 27.7048 16.273 28.0052 17.0247C28.3044 17.7736 28.9905 18.3029 29.7975 18.3974L37.581 19.3074C37.581 19.3074 37.582 57.1327 37.582 57.3529C37.582 58.8149 38.7673 60.0001 40.2293 60.0001C41.6913 60.0001 42.8766 58.8149 42.8766 57.3529V36.1935H44.0196V57.3529C44.0196 58.8149 45.2048 60.0001 46.6669 60.0001C48.1289 60.0001 49.3141 58.8149 49.3141 57.3529C49.3141 22.3471 49.2671 42.3869 49.2661 20.2733C49.2661 20.0191 49.4715 19.8127 49.7257 19.8116C49.9799 19.8104 50.1872 20.015 50.1894 20.2693L50.2709 36.4761C50.2769 37.6885 51.261 38.6711 52.4766 38.6711C52.4803 38.6711 52.4843 38.6711 52.4879 38.6711C53.7062 38.665 54.6889 37.6724 54.6828 36.454L54.6013 20.247Z" fill="black"/>
<path d="M43.4783 3.91464C40.9486 3.91464 38.9062 5.96659 38.9062 8.4867C38.9062 11.0001 40.9432 13.0588 43.4783 13.0588C46.0033 13.0588 48.0504 11.0117 48.0504 8.4867C48.0503 5.95382 45.997 3.91464 43.4783 3.91464Z" fill="black"/>
<path d="M14.9044 24.9487L13.508 23.0241L14.8106 21.217C14.8693 21.1231 14.9045 21.0527 14.9045 20.9705C14.9045 20.6185 14.2707 20.2076 13.9071 20.2076C13.8015 20.2076 13.6372 20.2546 13.5551 20.3837L12.4754 22.0853L11.4076 20.3719C11.3137 20.2194 11.1377 20.2076 11.0673 20.2076C10.6683 20.2076 10.058 20.6184 10.058 20.9705C10.058 21.0644 10.1167 21.1701 10.1518 21.217L11.4427 23.0124L10.0579 24.9488C9.99902 25.0191 9.96387 25.113 9.96387 25.2069C9.96387 25.5589 10.6093 25.9579 10.9261 25.9579C11.0434 25.9579 11.2195 25.9109 11.3017 25.7936L12.4753 24.0099L13.6607 25.7936C13.7428 25.9109 13.8954 25.9579 14.0127 25.9579C14.4117 25.9579 14.9985 25.5354 14.9985 25.2069C14.9982 25.1013 14.9512 24.9957 14.9044 24.9487Z" fill="black"/>
<path d="M19.7044 22.4022H18.4604V21.1582C18.4604 20.9117 18.2139 20.677 17.8384 20.677C17.4863 20.677 17.2046 20.9117 17.2046 21.1582V22.4021H15.9489C15.6672 22.4021 15.4795 22.6838 15.4795 23.0359C15.4795 23.4114 15.6672 23.6579 15.9489 23.6579H17.2046V24.9134C17.2046 25.1952 17.4863 25.3829 17.8384 25.3829C18.2139 25.3829 18.4604 25.1952 18.4604 24.9134V23.6579H19.7044C19.9509 23.6579 20.1973 23.4114 20.1973 23.0359C20.1973 22.6838 19.9509 22.4022 19.7044 22.4022Z" fill="black"/>
<path d="M24.9028 20.1958C24.7385 20.1958 24.5625 20.2663 24.5038 20.454L23.3655 23.9629L21.9572 20.454C21.8985 20.2663 21.7225 20.1958 21.523 20.1958C21.1357 20.1958 20.5137 20.5244 20.5137 20.9234C20.5137 20.9939 20.5371 21.0643 20.5607 21.1229L22.5791 25.4416C22.4971 26.8497 21.4174 27.1666 20.901 27.1666C20.6193 27.1666 20.5137 27.46 20.5137 27.8003C20.5137 28.3637 20.8188 28.4458 21.2061 28.4458C23.3067 28.4458 23.6353 26.9084 24.1869 25.5002L25.9002 21.1229C25.9236 21.0642 25.9353 20.9938 25.9353 20.9469C25.9355 20.5244 25.2664 20.1958 24.9028 20.1958Z" fill="black"/>
<path d="M30.1486 23.5287H27.1208C26.8391 23.5287 26.6514 23.8105 26.6514 24.1625C26.6514 24.5381 26.8391 24.7845 27.1208 24.7845H30.1486C30.395 24.7845 30.6415 24.5381 30.6415 24.1625C30.6415 23.8103 30.395 23.5287 30.1486 23.5287Z" fill="black"/>
<path d="M30.1486 21.1465H27.1208C26.8391 21.1465 26.6514 21.4282 26.6514 21.7802C26.6514 22.1558 26.8391 22.4022 27.1208 22.4022H30.1486C30.395 22.4022 30.6415 22.1558 30.6415 21.7802C30.6415 21.4281 30.395 21.1465 30.1486 21.1465Z" fill="black"/>
</g>
<defs>
<clipPath id="clip0_179_3583">
<rect width="60" height="60" fill="white"/>
</clipPath>
</defs>
</svg>
