<svg width="60" height="60" viewBox="0 0 60 60" fill="none" xmlns="http://www.w3.org/2000/svg">
<path d="M49.6018 43.3722L46.7679 35.4502H37.2439L30.5166 54.2553H53.4951L50.8917 46.9782C50.7135 46.4804 50.9728 45.9325 51.4705 45.7542L50.8256 43.9512C50.3278 44.1295 49.7801 43.8701 49.6018 43.3722Z" fill="#FFCC75"/>
<path d="M47.1992 25.2874C47.1621 25.1839 47.1432 25.0747 47.1432 24.965V13.4042H36.8674V24.965C36.8674 25.0749 36.8485 25.1839 36.8115 25.2874L26.1138 55.191C25.8245 55.9996 25.8703 56.7362 26.2427 57.2651C26.6151 57.794 27.2932 58.0851 28.1521 58.0851H55.8584C56.7173 58.0851 57.3955 57.7939 57.7678 57.2651C58.1402 56.7364 58.1859 55.9998 57.8968 55.191L47.1992 25.2874ZM37.0375 30.3405L38.7822 25.4632V16.2766C38.7822 15.7478 39.2107 15.3191 39.7396 15.3191C40.2685 15.3191 40.6971 15.7478 40.6971 16.2766V25.6294C40.6971 25.7393 40.6782 25.8484 40.6412 25.9519L38.8405 30.9855C38.7005 31.3768 38.3322 31.6207 37.939 31.6207C37.8319 31.6207 37.7231 31.6026 37.6165 31.5646C37.1185 31.3864 36.8594 30.8383 37.0375 30.3405ZM55.6367 55.7641C55.4573 56.0188 55.1654 56.1702 54.8539 56.1702H29.1567C28.8453 56.1702 28.5532 56.0187 28.3738 55.7641C28.1946 55.5094 28.1502 55.1835 28.2551 54.8903L35.6674 34.1702C35.8035 33.7894 36.1645 33.5353 36.569 33.5353H47.4417C47.8461 33.5353 48.207 33.7894 48.3433 34.1702L51.4044 42.7271C51.5826 43.225 51.3233 43.773 50.8255 43.9511L51.4703 45.7542C51.9684 45.5761 52.5162 45.8351 52.6944 46.3331L55.7556 54.8901C55.8604 55.1835 55.8161 55.5094 55.6367 55.7641Z" fill="#F2EBD9"/>
<path d="M28.0215 38.3224C28.0215 38.8512 27.5928 39.2798 27.0641 39.2798L6.00482 39.2795C5.83172 40.1107 5.74414 40.9584 5.74414 41.8085C5.74414 48.6718 11.3277 54.2553 18.1909 54.2553C19.154 54.2553 20.1135 54.1444 21.0427 53.9257C21.5455 53.8074 22.0477 54.1094 22.1839 54.603C23.054 54.3307 23.8869 53.9735 24.6713 53.5384L30.1147 38.3221C30.1147 38.3221 28.0215 38.3221 28.0215 38.3224Z" fill="#6DA8D6"/>
<path d="M24.3115 54.546L24.672 53.5383C23.8876 53.9735 23.0547 54.3307 22.1846 54.6028C22.1879 54.6147 22.192 54.6261 22.1948 54.6382C22.3159 55.1529 21.9968 55.6684 21.4822 55.7896C20.4092 56.0422 19.3021 56.1701 18.1916 56.1701C10.2727 56.1701 3.82993 49.7275 3.82993 41.8084C3.82993 40.547 3.99691 39.2898 4.32615 38.0721C4.43912 37.6545 4.81802 37.3646 5.2504 37.3646L27.0647 37.365C27.5935 37.365 28.0221 37.7934 28.0222 38.3222H30.1154L32.3708 32.0176C31.9295 31.3795 31.4458 30.7734 30.9247 30.2017C30.7398 30.3789 30.5017 30.4688 30.2627 30.4688C30.0206 30.4688 29.7781 30.3775 29.5918 30.1943C28.1996 28.8267 26.5948 27.7318 24.8224 26.9402C24.4775 26.7861 24.2555 26.4437 24.2555 26.0659V1.91492H12.1278V26.0658C12.1278 26.4436 11.9058 26.7859 11.5609 26.94C5.70129 29.5574 1.91504 35.3938 1.91504 41.8087C1.91504 50.7836 9.21666 58.0853 18.1916 58.0853C19.2802 58.0853 20.3682 57.9773 21.4254 57.7642C21.9346 57.6616 22.4296 57.9838 22.5462 58.4862C23.178 58.3217 23.796 58.1229 24.3976 57.8904C23.9233 56.9225 23.8864 55.7342 24.3115 54.546ZM14.0426 4.78726C14.0426 4.25849 14.4711 3.82981 15 3.82981C15.5289 3.82981 15.9575 4.25849 15.9575 4.78726V12.4468C15.9575 12.9756 15.5289 13.4043 15 13.4043C14.4711 13.4043 14.0426 12.9756 14.0426 12.4468V4.78726ZM6.161 33.9697C7.67568 31.6442 9.81283 29.818 12.3418 28.6883L14.0426 27.9286V16.2766C14.0426 15.7479 14.4711 15.3192 15 15.3192C15.5289 15.3192 15.9575 15.7479 15.9575 16.2766V28.5496C15.9575 28.9273 15.7355 29.2697 15.3905 29.4238L13.1227 30.4369C10.9311 31.4158 9.07853 32.9987 7.76542 35.0149C7.58185 35.2966 7.27521 35.4499 6.96232 35.4499C6.78321 35.4499 6.60193 35.3996 6.44057 35.2947C5.99759 35.0059 5.87236 34.4127 6.161 33.9697Z" fill="#C1E8E6"/>
<path d="M59.7005 54.546L49.0589 24.7988V13.4043H49.3781C49.9069 13.4043 50.3355 12.9756 50.3355 12.4468C50.3355 11.9181 49.9069 11.4894 49.3781 11.4894H34.634C34.1051 11.4894 33.6766 11.9181 33.6766 12.4468C33.6766 12.9756 34.1051 13.4043 34.634 13.4043H34.9532V24.7989L32.3707 32.0175L30.1154 38.3221L24.672 53.5384L24.3115 54.5461C23.8863 55.7343 23.9232 56.9227 24.3974 57.8906C24.4786 58.0563 24.571 58.2162 24.6777 58.3679C25.4084 59.4051 26.6751 60 28.1529 60H55.8592C57.337 60 58.6036 59.4051 59.3342 58.3678C60.0647 57.3304 60.1982 55.9375 59.7005 54.546ZM57.7686 57.2652C57.3962 57.7939 56.7181 58.0851 55.8592 58.0851H28.1529C27.294 58.0851 26.6158 57.7939 26.2435 57.2652C25.8711 56.7364 25.8254 55.9998 26.1145 55.1911L36.8121 25.2875C36.8492 25.1839 36.868 25.0748 36.868 24.965V13.4043H47.1439V24.965C47.1439 25.0749 47.1628 25.1839 47.1998 25.2875L57.8974 55.1911C58.1867 55.9998 58.141 56.7364 57.7686 57.2652Z" fill="#082947"/>
<path d="M37.6166 31.5645C37.7232 31.6026 37.8321 31.6206 37.9391 31.6206C38.3322 31.6206 38.7006 31.3767 38.8406 30.9854L40.6413 25.9518C40.6783 25.8483 40.6972 25.7391 40.6972 25.6293V16.2766C40.6972 15.7478 40.2686 15.3192 39.7398 15.3192C39.2109 15.3192 38.7823 15.7478 38.7823 16.2766V25.4632L37.0376 30.3405C36.8596 30.8383 37.1188 31.3864 37.6166 31.5645Z" fill="white"/>
<path d="M52.6946 46.3331C52.5164 45.8351 51.9686 45.5761 51.4706 45.7542C50.9726 45.9324 50.7134 46.4803 50.8917 46.9782L53.4949 54.2553H30.5164L37.2436 35.4502H46.7676L49.6015 43.3722C49.7796 43.8701 50.3275 44.1295 50.8253 43.9513C51.3234 43.7731 51.5826 43.2251 51.4045 42.7273L48.3433 34.1704C48.2072 33.7896 47.8462 33.5354 47.4418 33.5354H36.569C36.1646 33.5354 35.8037 33.7896 35.6675 34.1704L28.2552 54.8904C28.1503 55.1837 28.1946 55.5097 28.3739 55.7643C28.5533 56.0189 28.8452 56.1703 29.1567 56.1703H54.854C55.1653 56.1703 55.4574 56.0188 55.6368 55.7643C55.8161 55.5097 55.8604 55.1837 55.7555 54.8904L52.6946 46.3331Z" fill="#082947"/>
<path d="M6.44084 35.2946C6.6022 35.3996 6.78348 35.4498 6.96259 35.4498C7.27548 35.4498 7.58225 35.2965 7.76569 35.0147C9.0788 32.9987 10.9314 31.4156 13.1229 30.4367L15.3908 29.4236C15.7357 29.2695 15.9577 28.9272 15.9577 28.5494V16.2766C15.9577 15.7478 15.5292 15.3192 15.0003 15.3192C14.4714 15.3192 14.0428 15.7478 14.0428 16.2766V27.9286L12.342 28.6883C9.8131 29.8178 7.67595 31.6441 6.16127 33.9697C5.8725 34.4127 5.99774 35.0059 6.44084 35.2946Z" fill="white"/>
<path d="M14.9994 13.4042C15.5283 13.4042 15.9569 12.9756 15.9569 12.4468V4.78722C15.9569 4.25845 15.5283 3.82977 14.9994 3.82977C14.4705 3.82977 14.042 4.25845 14.042 4.78722V12.4468C14.042 12.9756 14.4707 13.4042 14.9994 13.4042Z" fill="white"/>
<path d="M21.4252 57.764C20.3681 57.977 19.28 58.0851 18.1915 58.0851C9.21651 58.0851 1.91489 50.7835 1.91489 41.8085C1.91489 35.3936 5.70102 29.5574 11.5607 26.9399C11.9057 26.7858 12.1277 26.4434 12.1277 26.0657V1.91489H24.2553V26.0658C24.2553 26.4435 24.4773 26.7859 24.8223 26.94C26.5948 27.7317 28.1995 28.8266 29.5916 30.1942C29.778 30.3774 30.0203 30.4686 30.2626 30.4686C30.5014 30.4686 30.7397 30.3789 30.9245 30.2016C30.9315 30.1949 30.9389 30.1891 30.9457 30.1822C31.3162 29.8049 31.3108 29.1987 30.9336 28.8282C29.5278 27.4473 27.9278 26.315 26.1702 25.4565V1.91489H26.4894C27.0183 1.91489 27.4468 1.48621 27.4468 0.957447C27.4468 0.428681 27.0183 0 26.4894 0H9.89362C9.36472 0 8.93617 0.428681 8.93617 0.957447C8.93617 1.48621 9.36472 1.91489 9.89362 1.91489H10.2128V25.4566C3.98821 28.4977 0 34.8484 0 41.8085C0 51.8394 8.16064 60 18.1915 60C19.4069 60 20.6221 59.8794 21.8035 59.6411C22.3219 59.5367 22.6574 59.0318 22.553 58.5135C22.5511 58.5042 22.5481 58.4954 22.5461 58.4862C22.4293 57.9837 21.9343 57.6614 21.4252 57.764Z" fill="#082947"/>
<path d="M21.0436 53.9257C20.1143 54.1444 19.1548 54.2553 18.1918 54.2553C11.3285 54.2553 5.74497 48.6718 5.74497 41.8085C5.74497 40.9586 5.83255 40.1108 6.00565 39.2795L27.0649 39.2798C27.5937 39.2798 28.0223 38.8512 28.0223 38.3224C28.0222 37.7934 27.5937 37.3649 27.0649 37.3649L5.25055 37.3646C4.81804 37.3646 4.43927 37.6546 4.32629 38.0721C3.99706 39.2899 3.83008 40.547 3.83008 41.8084C3.83008 49.7275 10.2728 56.1701 18.1918 56.1701C19.3023 56.1701 20.4094 56.0421 21.4823 55.7895C21.9969 55.6684 22.3161 55.1529 22.1949 54.6382C22.1921 54.6261 22.188 54.6147 22.1847 54.6028C22.0485 54.1094 21.5464 53.8074 21.0436 53.9257Z" fill="#082947"/>
</svg>
