<svg width="60" height="60" viewBox="0 0 60 60" fill="none" xmlns="http://www.w3.org/2000/svg">
<g clip-path="url(#clip0_339_1774)">
<path d="M32.5982 54.623C32.8648 54.0303 33.4576 53.655 34.1096 53.655H55.0118C55.9304 53.655 56.6811 52.9142 56.6811 51.9856V24.959C56.6811 24.0502 55.9402 23.2896 55.0118 23.2896H52.5324V49.6643C52.5423 50.7015 51.5248 51.6498 50.3592 51.2447C43.4544 48.9925 36.9347 46.8489 30.4943 51.0571C30.0695 51.3436 29.5953 51.3732 29.0619 51.2447C20.8038 48.5085 15.272 47.1947 9.19691 51.0571C8.11033 51.7387 6.64831 50.9484 6.61867 49.6643V23.2994H4.97894C4.06029 23.2994 3.30957 24.0401 3.30957 24.9687V52.0052C3.30957 52.9139 4.05036 53.6746 4.97894 53.6746H25.0514C25.7034 53.6746 26.296 54.05 26.5628 54.6426C27.1062 55.828 28.2915 56.5787 29.5756 56.5787C30.8598 56.5789 32.055 55.8085 32.5982 54.623Z" fill="#56ACE0"/>
<path d="M27.9253 47.4022V18.2616C21.5638 15.9699 15.0935 14.8536 9.9668 17.9751V46.8787C15.6862 44.3004 21.7612 45.3277 27.9253 47.4022Z" fill="#FFC10D"/>
<path d="M49.2036 47.4022V18.2616C48.6504 18.0838 48.0774 17.9061 47.5046 17.7282L44.2152 23.6354C44.0868 23.8724 43.899 24.0799 43.662 24.2281L37.5178 28.1498C36.362 28.8611 34.9792 28.0511 34.9692 26.7373L35.0779 19.4472C35.0779 19.1806 35.1471 18.9039 35.2952 18.6669L36.6782 16.1776C34.742 16.4147 32.9541 16.9876 31.2451 17.9852V46.8888C37.3497 44.1029 43.3557 45.545 49.2036 47.4022Z" fill="white"/>
<path d="M38.3271 23.6945L41.5178 21.6497L42.4858 19.921L39.3447 18.1924L38.3864 19.9113L38.3271 23.6945Z" fill="#FFC10D"/>
<path d="M50.1713 6.11134C50.6554 5.25198 50.3392 4.15547 49.4699 3.67139C48.6204 3.19724 47.4944 3.5331 47.03 4.37275L46.5361 5.27169L49.6675 7.02006L50.1713 6.11134Z" fill="#FFC10D"/>
<path d="M40.9541 15.2822L44.0869 17.0262L48.0555 9.89768L44.9227 8.15361L40.9541 15.2822Z" fill="#56ACE0"/>
<path d="M14.0374 23.6352C16.8132 23.0128 19.8161 23.2006 23.7772 24.2476C24.6168 24.4649 25.5255 23.981 25.812 23.0622C26.0492 22.1732 25.5158 21.2643 24.6266 21.0273C20.1123 19.8321 16.6252 19.6443 13.3062 20.3852C12.4073 20.5828 11.8541 21.4718 12.0517 22.3708C12.2592 23.2796 13.1384 23.8328 14.0374 23.6352Z" fill="#194F82"/>
<path d="M14.0374 32.8022C16.8132 32.1798 19.8161 32.3676 23.7772 33.4146C24.6168 33.6319 25.5255 33.148 25.812 32.2292C26.0492 31.3402 25.5158 30.4313 24.6266 30.1943C20.1123 28.9991 16.6252 28.8113 13.3062 29.5522C12.4073 29.7498 11.8541 30.6388 12.0517 31.5377C12.2592 32.4565 13.1384 33.0097 14.0374 32.8022Z" fill="#194F82"/>
<path d="M55.0017 19.9803H52.5223V17.0564C52.5223 16.3354 52.0581 15.7031 51.3764 15.476C50.6751 15.2488 49.9243 15.0019 49.1539 14.7549L53.0756 7.72173C54.4487 5.25213 53.5597 2.1406 51.0901 0.767518C48.3735 -0.704278 45.4594 0.451369 44.1359 2.75304L38.5644 12.7495C35.2157 12.7495 32.1732 13.5596 29.3678 15.2488C20.7442 12.2163 13.8393 11.3271 7.379 15.6736C6.90485 15.9798 6.61835 16.5033 6.61835 17.0664V19.9903H4.97862C2.23245 19.9803 0 22.2128 0 24.9689V52.0053C0 54.7613 2.23245 56.984 4.97862 56.984H24.0929C25.3177 58.7818 27.3625 59.8881 29.5851 59.8881C31.8076 59.8881 33.8524 58.7818 35.0773 56.984H55.0212C57.7772 56.984 59.9998 54.7515 59.9998 52.0053V24.9689C59.9801 22.2128 57.7477 19.9803 55.0017 19.9803ZM47.0397 4.36297C47.5039 3.52332 48.6301 3.19739 49.4797 3.6616C50.339 4.14568 50.6651 5.23226 50.181 6.10156L49.6872 7.0005L46.5558 5.25213L47.0397 4.36297ZM44.9259 8.16608L48.0572 9.90467L44.0862 17.0367L40.9548 15.2884L44.9259 8.16608ZM38.3865 19.9113L39.3447 18.1826L42.4761 19.931L41.5179 21.6596L38.3272 23.7044L38.3865 19.9113ZM31.2447 17.9751C32.9536 16.9872 34.7416 16.3947 36.6777 16.1674L35.2849 18.6568C35.1566 18.8939 35.0873 19.1605 35.0676 19.4371L34.959 26.7272C34.9689 28.0607 36.3518 28.8609 37.5076 28.1397L43.6518 24.218C43.8889 24.0797 44.0766 23.8624 44.2049 23.6253L47.4943 17.7181C48.0771 17.8959 48.6402 18.0737 49.1933 18.2515V47.3921C43.3356 45.5349 37.3395 44.1027 31.2349 46.8686V17.9751H31.2447ZM9.95724 17.9751C15.0841 14.8338 21.5542 15.9599 27.9157 18.2616V47.4022C21.7518 45.3277 15.6866 44.2807 9.95724 46.8787V17.9751ZM56.6611 52.0053C56.6611 52.9142 55.9202 53.6747 54.9917 53.6747H34.0995C33.4475 53.6747 32.8549 54.0502 32.5881 54.6427C32.0447 55.8282 30.8594 56.5789 29.5753 56.5789C28.2911 56.5789 27.0959 55.8085 26.5625 54.6427C26.2958 54.05 25.7031 53.6747 25.0511 53.6747H4.97862C4.05997 53.6747 3.30925 52.9339 3.30925 52.0053V24.9689C3.30925 24.0602 4.05004 23.2995 4.97862 23.2995H6.64799V49.6742C6.65792 50.9583 8.11979 51.7486 9.22623 51.067C15.2914 47.2046 20.8331 48.5086 29.0912 51.2546C29.6147 51.3929 30.0988 51.3533 30.5236 51.067C36.9444 46.859 43.4739 49.0025 50.3886 51.2546C51.574 51.6596 52.5717 50.7113 52.5617 49.6742V23.2994H55.0411C55.9597 23.2994 56.7105 24.0401 56.7105 24.9687V52.0052L56.6611 52.0053Z" fill="#194F82"/>
<path d="M25.812 41.3764C26.0492 40.4874 25.5158 39.5785 24.6266 39.3415C20.1123 38.1463 16.6252 37.9585 13.3062 38.6995C12.4073 38.897 11.8541 39.786 12.0517 40.685C12.2493 41.5839 13.1482 42.1371 14.0372 41.9395C16.813 41.3171 19.8159 41.5049 23.777 42.5519C24.6168 42.7891 25.5255 42.2853 25.812 41.3764Z" fill="#194F82"/>
<path d="M35.3741 33.4245C39.3451 32.3774 42.348 32.1997 45.1139 32.8121C46.0029 33.0097 46.8919 32.4565 47.0994 31.5576C47.297 30.6586 46.7339 29.7796 45.8449 29.5721C42.5259 28.8313 39.029 29.0189 34.5245 30.2141C33.6355 30.4513 33.112 31.36 33.3391 32.249C33.6257 33.148 34.5344 33.6319 35.3741 33.4245Z" fill="#194F82"/>
<path d="M45.1237 41.9592C46.0127 42.1568 46.9017 41.6036 47.1092 40.7047C47.3068 39.8057 46.7437 38.9267 45.8547 38.7192C42.5356 37.9784 39.0388 38.166 34.5343 39.3612C33.6453 39.5984 33.1218 40.5071 33.3488 41.3961C33.6353 42.3048 34.5441 42.7889 35.3837 42.5816C39.345 41.5246 42.3478 41.337 45.1237 41.9592Z" fill="#194F82"/>
</g>
<defs>
<clipPath id="clip0_339_1774">
<rect width="60" height="60" fill="white"/>
</clipPath>
</defs>
</svg>
