<svg width="60" height="60" viewBox="0 0 60 60" fill="none" xmlns="http://www.w3.org/2000/svg">
<path d="M52.5 26.925V15C52.5 11.575 45.375 10 38.75 10C36.6564 9.9919 34.5657 10.1592 32.5 10.5V10C32.5 6.575 25.375 5 18.75 5C12.125 5 5 6.575 5 10V47.5C5 50.925 12.125 52.5 18.75 52.5C21.1246 52.5041 23.494 52.278 25.825 51.825C29.3364 54.1911 33.546 55.2974 37.767 54.9631C41.9879 54.6289 45.971 52.874 49.0662 49.9847C52.1615 47.0955 54.1861 43.2425 54.8097 39.0545C55.4333 34.8664 54.6191 30.5907 52.5 26.925ZM44.725 19.55C46.5499 19.3091 48.3281 18.795 50 18.025V23.55C48.491 21.9163 46.7052 20.5622 44.725 19.55ZM18.75 15C22.5973 15.1415 26.431 14.4685 30 13.025V17.5C29.8 18.2 26.05 20 18.75 20C11.45 20 7.7 18.175 7.5 17.5V13.025C11.069 14.4685 14.9027 15.1415 18.75 15ZM18.6 30C17.987 31.6028 17.6163 33.288 17.5 35C11 34.8 7.625 33.175 7.5 32.5V28.025C11.0239 29.4429 14.8033 30.1153 18.6 30ZM7.5 40V35.525C10.6668 36.8483 14.0678 37.52 17.5 37.5C17.6199 39.2068 17.9732 40.8891 18.55 42.5C11.4 42.5 7.7 40.675 7.5 40ZM19.7 27.5H18.75C11.45 27.5 7.7 25.675 7.5 25V20.525C11.069 21.9685 14.9027 22.6415 18.75 22.5C20.472 22.5062 22.1925 22.3976 23.9 22.175C22.1892 23.6811 20.7661 25.4854 19.7 27.5ZM38.75 12.5C46.075 12.5 49.825 14.325 50 15C50.175 15.675 46.075 17.5 38.75 17.5C36.6555 17.5048 34.5644 17.3291 32.5 16.975V13.025C34.5644 12.6709 36.6555 12.4952 38.75 12.5ZM18.75 7.5C26 7.5 29.75 9.3 30 10C29.75 10.675 26.25 12.35 19.525 12.5H18.75C11.45 12.5 7.7 10.675 7.5 10C7.7 9.325 11.45 7.5 18.75 7.5ZM18.75 50C11.45 50 7.7 48.175 7.5 47.5V43.025C11.069 44.4685 14.9027 45.1415 18.75 45H19.675C20.6011 46.7528 21.7993 48.3476 23.225 49.725C21.7403 49.9078 20.2459 49.9997 18.75 50ZM36.25 52.5C33.0361 52.5 29.8943 51.547 27.222 49.7614C24.5497 47.9758 22.4669 45.4379 21.237 42.4686C20.007 39.4993 19.6852 36.232 20.3122 33.0798C20.9392 29.9276 22.4869 27.0321 24.7595 24.7595C27.0321 22.4869 29.9276 20.9392 33.0798 20.3122C36.232 19.6852 39.4993 20.007 42.4686 21.237C45.4379 22.4669 47.9758 24.5497 49.7614 27.222C51.547 29.8943 52.5 33.0361 52.5 36.25C52.4934 40.5577 50.7792 44.6871 47.7332 47.7332C44.6871 50.7792 40.5577 52.4934 36.25 52.5Z" fill="black"/>
<path d="M37.5003 35V29.25C38.0778 29.3546 38.6157 29.6147 39.0563 30.0023C39.4968 30.39 39.8232 30.8905 40.0003 31.45C40.0799 31.7815 40.2879 32.0679 40.5786 32.246C40.8693 32.4242 41.2188 32.4796 41.5503 32.4C41.8819 32.3204 42.1682 32.1124 42.3464 31.8218C42.5245 31.5311 42.5799 31.1815 42.5003 30.85C42.1429 29.7666 41.4815 28.8089 40.595 28.0908C39.7085 27.3728 38.6343 26.9247 37.5003 26.8V26.25C37.5003 25.9185 37.3686 25.6005 37.1342 25.3661C36.8998 25.1317 36.5819 25 36.2503 25C35.9188 25 35.6009 25.1317 35.3665 25.3661C35.132 25.6005 35.0003 25.9185 35.0003 26.25V26.775C33.6774 26.9311 32.4516 27.5476 31.5374 28.5166C30.6233 29.4856 30.0792 30.7452 30.0003 32.075C30.0034 32.4616 30.0453 32.8468 30.1253 33.225C30.4403 34.3312 31.0678 35.323 31.9325 36.0813C32.7973 36.8396 33.8625 37.3322 35.0003 37.5V43.275C34.4229 43.1704 33.8849 42.9103 33.4444 42.5226C33.0039 42.135 32.6775 41.6345 32.5003 41.075C32.4208 40.7435 32.2128 40.4571 31.9221 40.279C31.6314 40.1008 31.2819 40.0454 30.9503 40.125C30.6188 40.2046 30.3325 40.4126 30.1543 40.7032C29.9762 40.9939 29.9208 41.3435 30.0003 41.675C30.3563 42.7569 31.0179 43.7127 31.9051 44.4269C32.7923 45.1412 33.8673 45.5833 35.0003 45.7V46.25C35.0003 46.5815 35.132 46.8995 35.3665 47.1339C35.6009 47.3683 35.9188 47.5 36.2503 47.5C36.5819 47.5 36.8998 47.3683 37.1342 47.1339C37.3686 46.8995 37.5003 46.5815 37.5003 46.25V45.7C38.6516 45.5718 39.7396 45.1075 40.6287 44.3651C41.5179 43.6226 42.1688 42.6349 42.5003 41.525C42.5776 41.1633 42.6195 40.7949 42.6253 40.425C42.5661 39.0556 42.0154 37.7535 41.0741 36.7571C40.1329 35.7608 38.8641 35.137 37.5003 35ZM32.5003 32.5C32.4744 32.3176 32.4744 32.1324 32.5003 31.95C32.5651 31.2861 32.844 30.6612 33.2949 30.1697C33.7459 29.6782 34.3445 29.3466 35.0003 29.225V34.7C34.4382 34.6039 33.9113 34.3615 33.4725 33.9973C33.0336 33.6331 32.6984 33.1598 32.5003 32.625V32.5ZM40.0003 40.95C39.8232 41.5095 39.4968 42.01 39.0563 42.3977C38.6157 42.7853 38.0778 43.0454 37.5003 43.15V37.675C38.16 37.7978 38.7614 38.1331 39.2128 38.6296C39.6642 39.1261 39.9408 39.7566 40.0003 40.425C40.0228 40.5993 40.0228 40.7757 40.0003 40.95Z" fill="black"/>
</svg>
