<svg width="60" height="60" viewBox="0 0 60 60" fill="none" xmlns="http://www.w3.org/2000/svg">
<g clip-path="url(#clip0_179_3779)">
<path d="M27.5396 51.8479H25.5435C24.6245 51.8479 23.8736 51.1068 23.8736 50.178C23.8736 49.259 24.6146 48.508 25.5435 48.508H27.5396C27.6977 48.508 27.8262 48.5278 27.9645 48.5673C27.6483 47.5791 27.421 46.5515 27.2926 45.4843H26.018C25.099 45.4843 24.348 44.7433 24.348 43.8144C24.348 42.8954 25.0891 42.1444 26.018 42.1444H27.2334C27.3521 40.7709 27.6387 39.4469 28.0734 38.2017H26.5516C25.6326 38.2017 24.8816 37.4607 24.8816 36.5318C24.8816 35.6129 25.6227 34.8619 26.5516 34.8619H28.8341C29.1009 34.8619 29.3578 34.9311 29.5752 35.0398C30.6227 33.3303 31.9863 31.8184 33.5672 30.5832L33.8242 28.2215V5C33.8242 4.08105 33.0831 3.33008 32.1543 3.33008H5C4.08105 3.33008 3.33008 4.07111 3.33008 5V28.2412L6.31423 55.1879C6.41298 56.0377 7.11458 56.68 7.96444 56.68H29.1699C30.0198 56.68 30.7312 56.0377 30.8201 55.2078L30.9485 54.0812C30.1679 53.1523 29.5059 52.1247 28.9524 51.0378C28.6859 51.5218 28.162 51.8479 27.5396 51.8479Z" fill="#56ACE0"/>
<path d="M43.5868 30.504C36.3832 30.504 30.5137 36.3736 30.5137 43.5771C30.5137 50.7906 36.3832 56.6502 43.5868 56.6502C50.7903 56.6502 56.6698 50.7906 56.6698 43.5771C56.6696 36.3736 50.8002 30.504 43.5868 30.504Z" fill="#FFC10D"/>
<path d="M25.5041 26.2747C26.423 26.2747 27.174 25.5337 27.174 24.6048V11.6404C27.174 10.7214 26.433 9.97046 25.5041 9.97046H11.6699C10.751 9.97046 10 10.7115 10 11.6404V24.6048C10 25.5238 10.741 26.2747 11.6699 26.2747H25.5041Z" fill="white"/>
<path d="M25.5041 6.65021H11.6699C8.91305 6.65021 6.66992 8.89333 6.66992 11.6502V24.6146C6.66992 27.3715 8.91305 29.6146 11.6699 29.6146H25.5138C28.2707 29.6146 30.5138 27.3715 30.5138 24.6146V11.6404C30.504 8.8834 28.2609 6.65021 25.5041 6.65021ZM27.164 24.6048C27.164 25.5238 26.423 26.2747 25.4941 26.2747H11.6601C10.7412 26.2747 9.9902 25.5337 9.9902 24.6048V22.1147H13.1423C14.0613 22.1147 14.8123 21.3737 14.8123 20.4448C14.8123 19.5258 14.0712 18.7748 13.1423 18.7748H9.9902V16.0674H16.5614C17.4803 16.0674 18.2313 15.3263 18.2313 14.3974C18.2313 13.4785 17.4903 12.7275 16.5614 12.7275H10.0099V11.6406C10.0099 10.7216 10.751 9.97064 11.6798 9.97064H25.5238C26.4427 9.97064 27.1937 10.7117 27.1937 11.6406V24.5952H27.164V24.6048Z" fill="#194F82"/>
<path d="M43.5868 37.2332C44.8814 37.2332 45.9386 38.2808 45.9386 39.585C45.9386 40.504 46.6798 41.255 47.6086 41.255C48.5275 41.255 49.2785 40.5139 49.2785 39.585C49.2785 37.0356 47.5887 34.8617 45.2667 34.1502V33.1226C45.2667 32.2036 44.5257 31.4526 43.5968 31.4526C42.6778 31.4526 41.9268 32.1937 41.9268 33.1226V34.1502C39.6047 34.8617 37.9151 37.0356 37.9151 39.585C37.9151 42.7175 40.4645 45.2669 43.5969 45.2669C43.5475 45.2669 43.5969 45.2669 43.6069 45.2669C44.8025 45.3855 45.9487 46.3736 45.9487 47.5891C45.9487 48.8836 44.9012 49.9409 43.5969 49.9409C42.2926 49.9409 41.2451 48.8934 41.2451 47.5891C41.2451 46.6701 40.5041 45.9191 39.5752 45.9191C38.6562 45.9191 37.9053 46.6602 37.9053 47.5891C37.9053 50.1385 39.5951 52.3124 41.9171 53.0239V54.0418C41.9171 54.9607 42.6581 55.7117 43.587 55.7117C44.5059 55.7117 45.2569 54.9707 45.2569 54.0418V53.0339C47.5791 52.3223 49.2687 50.1484 49.2687 47.599C49.2687 44.4666 46.5019 41.9271 43.3794 41.9271C43.4288 41.9271 43.3794 41.9271 43.3695 41.9271C42.1739 41.8085 41.245 40.8005 41.245 39.5852C41.235 38.2806 42.2824 37.2332 43.5868 37.2332Z" fill="#194F82"/>
<path d="M10.6029 38.2115C11.5218 38.2115 12.2728 37.4705 12.2728 36.5416C12.2728 35.6226 11.5317 34.8716 10.6029 34.8716H8.33008C7.41113 34.8716 6.66016 35.6127 6.66016 36.5416C6.66016 37.4605 7.40119 38.2115 8.33008 38.2115H10.6029Z" fill="#194F82"/>
<path d="M19.723 34.8815H17.4404C16.5215 34.8815 15.7705 35.6225 15.7705 36.5514C15.7705 37.4703 16.5115 38.2213 17.4404 38.2213H19.723C20.6419 38.2213 21.3929 37.4803 21.3929 36.5514C21.3931 35.6227 20.6419 34.8815 19.723 34.8815Z" fill="#194F82"/>
<path d="M11.146 45.4941C12.0649 45.4941 12.8159 44.753 12.8159 43.8242C12.8159 42.8953 12.0749 42.1542 11.146 42.1542H9.02149C8.10253 42.1542 7.35156 42.8953 7.35156 43.8242C7.35156 44.7431 8.0926 45.4941 9.02149 45.4941H11.146Z" fill="#194F82"/>
<path d="M19.644 42.164H17.5195C16.6006 42.164 15.8496 42.9052 15.8496 43.8339C15.8496 44.7529 16.5906 45.5038 17.5195 45.5038H19.644C20.563 45.5038 21.314 44.7628 21.314 43.8339C21.314 42.905 20.563 42.164 19.644 42.164Z" fill="#194F82"/>
<path d="M11.621 48.5178H9.625C8.70605 48.5178 7.95508 49.2589 7.95508 50.1877C7.95508 51.1166 8.69611 51.8577 9.625 51.8577H11.6211C12.5401 51.8577 13.291 51.1166 13.291 50.1877C13.291 49.2688 12.5399 48.5178 11.621 48.5178Z" fill="#194F82"/>
<path d="M19.585 48.5178H17.5889C16.6699 48.5178 15.9189 49.2589 15.9189 50.1877C15.9189 51.1166 16.66 51.8577 17.5889 51.8577H19.585C20.5039 51.8577 21.2549 51.1166 21.2549 50.1877C21.2451 49.2688 20.5039 48.5178 19.585 48.5178Z" fill="#194F82"/>
<path d="M43.5871 27.174C41.3045 27.174 39.1305 27.6483 37.1642 28.4882C37.1642 28.4388 37.1741 28.3895 37.1741 28.3302V4.99999C37.1739 2.24312 34.9308 0 32.174 0H5.00992C2.24312 0 0 2.24312 0 4.99999V28.3399C0 28.3992 0 28.4585 0.00993547 28.5276L3.01396 55.5633C3.30056 58.0928 5.43485 60 7.9843 60H29.1898C31.3143 60 33.1226 58.666 33.8439 56.7589C36.5711 58.7747 39.9407 60 43.5869 60C52.6383 60 60 52.6383 60 43.5869C60 34.5355 52.6384 27.174 43.5871 27.174ZM30.84 55.1779C30.7413 56.0278 30.0397 56.6502 29.1898 56.6502H7.98414C7.13428 56.6502 6.4229 56.0079 6.33394 55.1581L3.33006 28.2412V4.99999C3.33006 4.08103 4.0711 3.33006 4.99999 3.33006H32.164C33.083 3.33006 33.8339 4.0711 33.8339 4.99999V28.2412L33.577 30.6029C31.996 31.8282 30.6323 33.3401 29.5849 35.0595C29.3576 34.9409 29.1106 34.8816 28.8439 34.8816H26.5613C25.6424 34.8816 24.8914 35.6226 24.8914 36.5515C24.8914 37.4705 25.6324 38.2214 26.5613 38.2214H28.0831C27.6484 39.4764 27.3618 40.8005 27.2432 42.1641H26.0277C25.1088 42.1641 24.3578 42.9052 24.3578 43.8341C24.3578 44.753 25.0988 45.504 26.0277 45.504H27.3024C27.4308 46.5712 27.6581 47.5989 27.9743 48.587C27.836 48.5475 27.6877 48.5277 27.5494 48.5277H25.5533C24.6343 48.5277 23.8833 49.2689 23.8833 50.1977C23.8833 51.1264 24.6244 51.8676 25.5533 51.8676H27.5494C28.162 51.8676 28.6956 51.5415 28.9822 51.0376C29.5356 52.1245 30.1977 53.1522 30.9783 54.0811L30.84 55.1779ZM43.5871 56.6699C36.3736 56.6699 30.514 50.8004 30.514 43.5968C30.514 36.3834 36.3835 30.5238 43.5871 30.5238C50.7906 30.5238 56.6701 36.3834 56.6701 43.5871C56.6699 50.8004 50.8005 56.6699 43.5871 56.6699Z" fill="#194F82"/>
</g>
<defs>
<clipPath id="clip0_179_3779">
<rect width="60" height="60" fill="white"/>
</clipPath>
</defs>
</svg>
