<svg width="24" height="24" viewBox="0 0 24 24" fill="none" xmlns="http://www.w3.org/2000/svg">
<g clip-path="url(#clip0_162_2760)">
<path d="M0.689564 11.8564C0.689006 13.8728 1.21589 15.8418 2.21775 17.5772L0.59375 23.5067L6.66184 21.9156C8.3402 22.8293 10.2207 23.3081 12.1316 23.3082H12.1366C18.445 23.3082 23.5802 18.1749 23.5829 11.8654C23.5841 8.80798 22.3945 5.93301 20.2332 3.77003C18.0723 1.60724 15.1983 0.415519 12.1362 0.414124C5.82705 0.414124 0.692262 5.54715 0.689657 11.8564" fill="url(#paint0_linear_162_2760)"/>
<path d="M0.283129 11.8527C0.282477 13.9417 0.828245 15.981 1.86583 17.7786L0.183594 23.9207L6.46927 22.2726C8.20117 23.2168 10.1511 23.7147 12.1353 23.7154H12.1404C18.6751 23.7154 23.9948 18.3975 23.9975 11.8621C23.9987 8.69488 22.7663 5.71656 20.5278 3.47609C18.289 1.23591 15.3122 0.00130233 12.1404 0C5.60462 0 0.285733 5.31721 0.283129 11.8527ZM4.02638 17.469L3.79169 17.0965C2.80508 15.5277 2.28434 13.7149 2.28508 11.8534C2.28722 6.4213 6.70806 2.00186 12.1442 2.00186C14.7767 2.00298 17.2508 3.02921 19.1116 4.89116C20.9723 6.7533 21.9962 9.22865 21.9956 11.8614C21.9932 17.2935 17.5722 21.7135 12.1404 21.7135H12.1365C10.3679 21.7126 8.63327 21.2376 7.12052 20.34L6.76052 20.1265L3.03048 21.1045L4.02638 17.4689V17.469Z" fill="url(#paint1_linear_162_2760)"/>
<path d="M9.17468 6.89746C8.95272 6.40416 8.71914 6.39421 8.50807 6.38556C8.33523 6.37811 8.13765 6.37867 7.94026 6.37867C7.74268 6.37867 7.42165 6.453 7.1503 6.74928C6.87868 7.04583 6.11328 7.76249 6.11328 9.22007C6.11328 10.6777 7.17496 12.0864 7.32296 12.2843C7.47114 12.4817 9.37254 15.5686 12.3839 16.7562C14.8866 17.743 15.3959 17.5468 15.939 17.4973C16.4823 17.448 17.692 16.7808 17.9388 16.089C18.1857 15.3973 18.1857 14.8043 18.1117 14.6804C18.0377 14.557 17.8401 14.4829 17.5438 14.3348C17.2474 14.1866 15.7909 13.4698 15.5193 13.371C15.2477 13.2722 15.0502 13.2229 14.8526 13.5195C14.655 13.8157 14.0877 14.4829 13.9148 14.6804C13.742 14.8785 13.5691 14.9031 13.2729 14.755C12.9764 14.6063 12.0223 14.2938 10.8903 13.2846C10.0096 12.4993 9.41496 11.5296 9.24212 11.2329C9.06928 10.9367 9.22361 10.7762 9.37216 10.6285C9.50528 10.4958 9.66854 10.2826 9.81682 10.1096C9.96454 9.93663 10.0138 9.81318 10.1126 9.6156C10.2115 9.41783 10.162 9.24481 10.0881 9.09663C10.0138 8.94844 9.43812 7.48323 9.17468 6.89746Z" fill="white"/>
</g>
<defs>
<linearGradient id="paint0_linear_162_2760" x1="1150.05" y1="2309.67" x2="1150.05" y2="0.414124" gradientUnits="userSpaceOnUse">
<stop stop-color="#1FAF38"/>
<stop offset="1" stop-color="#60D669"/>
</linearGradient>
<linearGradient id="paint1_linear_162_2760" x1="1190.88" y1="2392.07" x2="1190.88" y2="0" gradientUnits="userSpaceOnUse">
<stop stop-color="#F9F9F9"/>
<stop offset="1" stop-color="white"/>
</linearGradient>
<clipPath id="clip0_162_2760">
<rect width="23.82" height="24" fill="white" transform="translate(0.179688)"/>
</clipPath>
</defs>
</svg>
