<svg width="316" height="60" viewBox="0 0 316 60" fill="none" xmlns="http://www.w3.org/2000/svg">
<path d="M4.724 48V14.4H12.02L24.26 34.32L19.028 34.272L31.412 14.4H38.42V48H30.5V37.536C30.5 34.656 30.564 32.064 30.692 29.76C30.852 27.456 31.108 25.168 31.46 22.896L32.372 25.392L23.06 39.84H19.892L10.772 25.488L11.684 22.896C12.036 25.04 12.276 27.248 12.404 29.52C12.564 31.76 12.644 34.432 12.644 37.536V48H4.724ZM55.4566 48.432C53.3126 48.432 51.3926 47.872 49.6966 46.752C48.0326 45.6 46.7046 44.032 45.7126 42.048C44.7206 40.032 44.2246 37.76 44.2246 35.232C44.2246 32.64 44.7206 30.352 45.7126 28.368C46.7046 26.384 48.0646 24.832 49.7926 23.712C51.5206 22.56 53.4886 21.984 55.6966 21.984C56.9126 21.984 58.0166 22.16 59.0086 22.512C60.0326 22.864 60.9286 23.36 61.6966 24C62.4646 24.608 63.1206 25.328 63.6646 26.16C64.2086 26.96 64.6086 27.824 64.8646 28.752L63.2806 28.56V22.512H70.9126V48H63.1366V41.856L64.8646 41.808C64.6086 42.704 64.1926 43.552 63.6166 44.352C63.0406 45.152 62.3366 45.856 61.5046 46.464C60.6726 47.072 59.7446 47.552 58.7206 47.904C57.6966 48.256 56.6086 48.432 55.4566 48.432ZM57.5686 41.952C58.7526 41.952 59.7766 41.68 60.6406 41.136C61.5046 40.592 62.1766 39.824 62.6566 38.832C63.1366 37.808 63.3766 36.608 63.3766 35.232C63.3766 33.856 63.1366 32.672 62.6566 31.68C62.1766 30.656 61.5046 29.872 60.6406 29.328C59.7766 28.752 58.7526 28.464 57.5686 28.464C56.4166 28.464 55.4086 28.752 54.5446 29.328C53.7126 29.872 53.0566 30.656 52.5766 31.68C52.0966 32.672 51.8566 33.856 51.8566 35.232C51.8566 36.608 52.0966 37.808 52.5766 38.832C53.0566 39.824 53.7126 40.592 54.5446 41.136C55.4086 41.68 56.4166 41.952 57.5686 41.952ZM79.8013 48V16.08H87.4813V48H79.8013ZM75.2893 29.232V22.512H92.4253V29.232H75.2893ZM107.764 48.48C105.3 48.48 103.092 47.904 101.14 46.752C99.1879 45.6 97.6359 44.032 96.4839 42.048C95.3639 40.032 94.8039 37.76 94.8039 35.232C94.8039 32.704 95.3639 30.448 96.4839 28.464C97.6359 26.448 99.1879 24.864 101.14 23.712C103.092 22.56 105.3 21.984 107.764 21.984C110.036 21.984 112.116 22.384 114.004 23.184C115.924 23.984 117.444 25.104 118.564 26.544L114.388 31.536C113.94 31.024 113.412 30.544 112.804 30.096C112.196 29.648 111.524 29.296 110.788 29.04C110.052 28.784 109.284 28.656 108.484 28.656C107.268 28.656 106.196 28.944 105.268 29.52C104.34 30.064 103.62 30.832 103.108 31.824C102.596 32.816 102.34 33.952 102.34 35.232C102.34 36.448 102.596 37.552 103.108 38.544C103.652 39.536 104.388 40.32 105.316 40.896C106.244 41.472 107.3 41.76 108.484 41.76C109.316 41.76 110.084 41.664 110.788 41.472C111.492 41.248 112.132 40.928 112.708 40.512C113.316 40.096 113.876 39.584 114.388 38.976L118.516 44.016C117.428 45.392 115.908 46.48 113.956 47.28C112.036 48.08 109.972 48.48 107.764 48.48ZM122.736 48V12.48H130.272V27.696L128.736 28.272C129.088 27.12 129.712 26.08 130.608 25.152C131.536 24.192 132.64 23.424 133.92 22.848C135.2 22.272 136.544 21.984 137.952 21.984C139.872 21.984 141.488 22.384 142.8 23.184C144.112 23.952 145.104 25.12 145.776 26.688C146.448 28.224 146.784 30.112 146.784 32.352V48H139.056V32.976C139.056 31.952 138.912 31.104 138.624 30.432C138.336 29.76 137.888 29.264 137.28 28.944C136.704 28.592 135.984 28.432 135.12 28.464C134.448 28.464 133.824 28.576 133.248 28.8C132.672 28.992 132.176 29.296 131.76 29.712C131.344 30.096 131.008 30.544 130.752 31.056C130.528 31.568 130.416 32.128 130.416 32.736V48H126.624C125.728 48 124.96 48 124.32 48C123.68 48 123.152 48 122.736 48Z" fill="#4488AC"/>
<path d="M154.021 48V14.4H162.181V40.8H177.157V48H154.021ZM193.661 48.48C190.845 48.48 188.397 47.92 186.317 46.8C184.237 45.648 182.621 44.096 181.469 42.144C180.317 40.16 179.741 37.904 179.741 35.376C179.741 33.424 180.061 31.632 180.701 30C181.341 28.368 182.237 26.96 183.389 25.776C184.541 24.56 185.901 23.632 187.469 22.992C189.069 22.32 190.813 21.984 192.701 21.984C194.493 21.984 196.125 22.304 197.597 22.944C199.101 23.584 200.397 24.48 201.485 25.632C202.573 26.784 203.405 28.144 203.981 29.712C204.557 31.28 204.813 32.992 204.749 34.848L204.701 36.912H184.397L183.293 32.592H198.461L197.645 33.504V32.544C197.581 31.744 197.325 31.04 196.877 30.432C196.461 29.792 195.901 29.296 195.197 28.944C194.493 28.592 193.693 28.416 192.797 28.416C191.549 28.416 190.477 28.672 189.581 29.184C188.717 29.664 188.061 30.384 187.613 31.344C187.165 32.272 186.941 33.424 186.941 34.8C186.941 36.208 187.229 37.44 187.805 38.496C188.413 39.52 189.277 40.32 190.397 40.896C191.549 41.472 192.909 41.76 194.477 41.76C195.565 41.76 196.525 41.6 197.357 41.28C198.221 40.96 199.149 40.416 200.141 39.648L203.741 44.736C202.749 45.6 201.693 46.304 200.573 46.848C199.453 47.392 198.301 47.792 197.117 48.048C195.965 48.336 194.813 48.48 193.661 48.48ZM218.234 48.48C215.738 48.48 213.53 48.08 211.61 47.28C209.722 46.48 208.218 45.408 207.098 44.064L211.754 40.032C212.746 41.024 213.866 41.76 215.114 42.24C216.362 42.688 217.546 42.912 218.666 42.912C219.114 42.912 219.514 42.864 219.866 42.768C220.218 42.672 220.506 42.544 220.73 42.384C220.986 42.192 221.178 41.984 221.306 41.76C221.434 41.504 221.498 41.216 221.498 40.896C221.498 40.256 221.21 39.76 220.634 39.408C220.346 39.248 219.866 39.056 219.194 38.832C218.522 38.608 217.658 38.352 216.602 38.064C215.098 37.68 213.786 37.232 212.666 36.72C211.578 36.176 210.682 35.552 209.978 34.848C209.338 34.176 208.842 33.44 208.49 32.64C208.138 31.808 207.962 30.88 207.962 29.856C207.962 28.672 208.234 27.6 208.778 26.64C209.354 25.68 210.106 24.848 211.034 24.144C211.994 23.44 213.082 22.912 214.298 22.56C215.546 22.176 216.826 21.984 218.138 21.984C219.546 21.984 220.89 22.144 222.17 22.464C223.45 22.784 224.634 23.232 225.722 23.808C226.842 24.384 227.834 25.072 228.698 25.872L224.666 30.384C224.09 29.84 223.434 29.36 222.698 28.944C221.994 28.496 221.258 28.144 220.49 27.888C219.722 27.632 219.018 27.504 218.378 27.504C217.898 27.504 217.466 27.552 217.082 27.648C216.73 27.712 216.426 27.84 216.17 28.032C215.914 28.192 215.722 28.4 215.594 28.656C215.466 28.88 215.402 29.152 215.402 29.472C215.402 29.792 215.482 30.096 215.642 30.384C215.834 30.672 216.09 30.912 216.41 31.104C216.73 31.296 217.242 31.52 217.946 31.776C218.65 32 219.61 32.288 220.826 32.64C222.33 33.056 223.626 33.52 224.714 34.032C225.802 34.544 226.666 35.152 227.306 35.856C227.818 36.4 228.202 37.04 228.458 37.776C228.714 38.48 228.842 39.248 228.842 40.08C228.842 41.712 228.378 43.168 227.45 44.448C226.554 45.696 225.306 46.688 223.706 47.424C222.106 48.128 220.282 48.48 218.234 48.48ZM242 48.48C239.504 48.48 237.296 48.08 235.376 47.28C233.488 46.48 231.984 45.408 230.864 44.064L235.52 40.032C236.512 41.024 237.632 41.76 238.88 42.24C240.128 42.688 241.312 42.912 242.432 42.912C242.88 42.912 243.28 42.864 243.632 42.768C243.984 42.672 244.272 42.544 244.496 42.384C244.752 42.192 244.944 41.984 245.072 41.76C245.2 41.504 245.264 41.216 245.264 40.896C245.264 40.256 244.976 39.76 244.4 39.408C244.112 39.248 243.632 39.056 242.96 38.832C242.288 38.608 241.424 38.352 240.368 38.064C238.864 37.68 237.552 37.232 236.432 36.72C235.344 36.176 234.448 35.552 233.744 34.848C233.104 34.176 232.608 33.44 232.256 32.64C231.904 31.808 231.728 30.88 231.728 29.856C231.728 28.672 232 27.6 232.544 26.64C233.12 25.68 233.872 24.848 234.8 24.144C235.76 23.44 236.848 22.912 238.064 22.56C239.312 22.176 240.592 21.984 241.904 21.984C243.312 21.984 244.656 22.144 245.936 22.464C247.216 22.784 248.4 23.232 249.488 23.808C250.608 24.384 251.6 25.072 252.464 25.872L248.432 30.384C247.856 29.84 247.2 29.36 246.464 28.944C245.76 28.496 245.024 28.144 244.256 27.888C243.488 27.632 242.784 27.504 242.144 27.504C241.664 27.504 241.232 27.552 240.848 27.648C240.496 27.712 240.192 27.84 239.936 28.032C239.68 28.192 239.488 28.4 239.36 28.656C239.232 28.88 239.168 29.152 239.168 29.472C239.168 29.792 239.248 30.096 239.408 30.384C239.6 30.672 239.856 30.912 240.176 31.104C240.496 31.296 241.008 31.52 241.712 31.776C242.416 32 243.376 32.288 244.592 32.64C246.096 33.056 247.392 33.52 248.48 34.032C249.568 34.544 250.432 35.152 251.072 35.856C251.584 36.4 251.968 37.04 252.224 37.776C252.48 38.48 252.608 39.248 252.608 40.08C252.608 41.712 252.144 43.168 251.216 44.448C250.32 45.696 249.072 46.688 247.472 47.424C245.872 48.128 244.048 48.48 242 48.48ZM269.174 48.48C266.518 48.48 264.15 47.904 262.07 46.752C260.022 45.6 258.39 44.032 257.174 42.048C255.99 40.064 255.398 37.792 255.398 35.232C255.398 32.672 255.99 30.4 257.174 28.416C258.39 26.432 260.022 24.864 262.07 23.712C264.15 22.56 266.518 21.984 269.174 21.984C271.83 21.984 274.182 22.56 276.23 23.712C278.31 24.864 279.942 26.432 281.126 28.416C282.31 30.4 282.902 32.672 282.902 35.232C282.902 37.792 282.31 40.064 281.126 42.048C279.942 44.032 278.31 45.6 276.23 46.752C274.182 47.904 271.83 48.48 269.174 48.48ZM269.174 41.856C270.326 41.856 271.35 41.568 272.246 40.992C273.142 40.416 273.846 39.632 274.358 38.64C274.87 37.648 275.11 36.512 275.078 35.232C275.11 33.952 274.87 32.816 274.358 31.824C273.846 30.8 273.142 30 272.246 29.424C271.35 28.848 270.326 28.56 269.174 28.56C268.022 28.56 266.982 28.848 266.054 29.424C265.158 30 264.454 30.8 263.942 31.824C263.43 32.816 263.19 33.952 263.222 35.232C263.19 36.512 263.43 37.648 263.942 38.64C264.454 39.632 265.158 40.416 266.054 40.992C266.982 41.568 268.022 41.856 269.174 41.856ZM287.924 48V22.512H295.22L295.46 27.696L293.924 28.272C294.276 27.12 294.9 26.08 295.796 25.152C296.724 24.192 297.828 23.424 299.108 22.848C300.388 22.272 301.732 21.984 303.14 21.984C305.06 21.984 306.676 22.384 307.988 23.184C309.3 23.952 310.292 25.12 310.964 26.688C311.636 28.224 311.972 30.112 311.972 32.352V48H304.244V32.976C304.244 31.952 304.1 31.104 303.812 30.432C303.524 29.76 303.076 29.264 302.468 28.944C301.892 28.592 301.172 28.432 300.308 28.464C299.636 28.464 299.012 28.576 298.436 28.8C297.86 28.992 297.364 29.296 296.948 29.712C296.532 30.096 296.196 30.544 295.94 31.056C295.716 31.568 295.604 32.128 295.604 32.736V48H291.812C290.916 48 290.148 48 289.508 48C288.868 48 288.34 48 287.924 48Z" fill="#FF8C42"/>
<line x1="2" y1="58.5" x2="314" y2="58.5" stroke="url(#paint0_linear_194_3172)" stroke-width="3" stroke-linecap="round" stroke-dasharray="3 6 9 12"/>
<defs>
<linearGradient id="paint0_linear_194_3172" x1="5.0983" y1="60.0148" x2="313.141" y2="54.6148" gradientUnits="userSpaceOnUse">
<stop offset="0.369792" stop-color="#4488AC"/>
<stop offset="0.598958" stop-color="#FF8C42"/>
<stop offset="1" stop-color="#FF8C42"/>
</linearGradient>
</defs>
</svg>
