<svg width="40" height="40" viewBox="0 0 40 40" fill="none" xmlns="http://www.w3.org/2000/svg">
<g clip-path="url(#clip0_529_1403)">
<rect width="40" height="40" rx="20" fill="white"/>
<path fill-rule="evenodd" clip-rule="evenodd" d="M31.1423 31.8285C34.2869 28.8652 36.25 24.6619 36.25 20C36.25 11.0254 28.9746 3.75 20 3.75C11.0254 3.75 3.75 11.0254 3.75 20C3.75 24.6619 5.71309 28.8652 8.85771 31.8285C11.7669 34.5699 15.6872 36.25 20 36.25C24.3128 36.25 28.2331 34.5699 31.1423 31.8285ZM10.2419 29.6872C12.5327 26.8297 16.0527 25 20 25C23.9473 25 27.4673 26.8297 29.7581 29.6872C27.2671 32.1963 23.815 33.75 20 33.75C16.185 33.75 12.7329 32.1963 10.2419 29.6872ZM26.25 15C26.25 18.4518 23.4518 21.25 20 21.25C16.5482 21.25 13.75 18.4518 13.75 15C13.75 11.5482 16.5482 8.75 20 8.75C23.4518 8.75 26.25 11.5482 26.25 15Z" fill="#82B0C8"/>
</g>
<defs>
<clipPath id="clip0_529_1403">
<rect width="40" height="40" rx="20" fill="white"/>
</clipPath>
</defs>
</svg>
